<?xml version="1.0" standalone="no"?>
<!DOCTYPE svg PUBLIC "-//W3C//DTD SVG 20010904//EN"
 "http://www.w3.org/TR/2001/REC-SVG-20010904/DTD/svg10.dtd">
<svg version="1.0" xmlns="http://www.w3.org/2000/svg"
 width="500.000000pt" height="500.000000pt" viewBox="0 0 500.000000 500.000000"
 preserveAspectRatio="xMidYMid meet">

<g transform="translate(0.000000,500.000000) scale(0.100000,-0.100000)"
fill="#000000" stroke="none">
<path d="M3560 3456 c0 -2 7 -7 16 -10 8 -3 12 -2 9 4 -6 10 -25 14 -25 6z"/>
<path d="M3605 3430 c3 -5 11 -10 16 -10 6 0 7 5 4 10 -3 6 -11 10 -16 10 -6
0 -7 -4 -4 -10z"/>
<path d="M2530 3168 c42 -25 160 -68 160 -58 0 15 -29 31 -100 55 -90 31 -106
31 -60 3z"/>
<path d="M2840 3048 c14 -6 36 -15 50 -21 56 -24 95 -36 100 -31 9 10 -32 33
-86 49 -61 18 -104 20 -64 3z"/>
<path d="M3014 2975 c11 -8 27 -15 35 -15 10 1 7 6 -9 15 -33 19 -50 18 -26 0z"/>
<path d="M2643 2856 l-103 -34 0 30 c0 42 -32 34 -46 -12 -9 -30 -22 -40 -94
-76 -45 -23 -86 -48 -91 -55 -19 -31 12 -29 80 5 39 20 74 36 79 36 5 0 8 -57
7 -127 -3 -127 -3 -129 -44 -217 -53 -115 -64 -107 -71 50 -3 63 -8 114 -12
114 -5 0 -12 0 -16 0 -4 0 -13 -14 -19 -31 -10 -27 -15 -30 -27 -20 -20 17
-54 -2 -62 -34 -3 -14 -11 -25 -18 -25 -6 0 -24 -19 -41 -41 -47 -65 -123
-128 -161 -135 -52 -10 -74 15 -74 82 0 48 3 54 28 66 30 14 74 92 70 123 -5
34 -43 30 -71 -7 -29 -40 -82 -151 -126 -268 -37 -98 -66 -142 -80 -122 -4 8
-11 48 -15 90 -6 77 -21 113 -60 144 -17 14 -21 28 -21 79 0 49 -4 64 -18 73
-15 9 -22 6 -43 -17 -29 -34 -31 -77 -4 -102 16 -14 17 -20 6 -31 -8 -7 -17
-35 -20 -61 -4 -26 -16 -81 -27 -122 -57 -212 -140 -267 -205 -135 -34 70 -42
194 -20 324 25 148 33 170 62 170 55 0 164 139 164 210 0 33 -26 70 -50 70
-30 0 -86 -63 -123 -140 -19 -38 -37 -67 -40 -63 -4 3 -7 26 -7 50 0 42 -11
55 -26 31 -12 -19 -5 -90 11 -114 13 -20 13 -28 0 -64 -8 -22 -22 -91 -31
-153 -22 -150 -14 -261 24 -337 27 -55 78 -100 112 -100 29 0 83 43 107 85 29
50 80 213 89 283 4 28 10 52 14 52 15 0 51 -49 60 -81 6 -19 10 -52 10 -75 0
-52 17 -102 39 -113 33 -18 59 6 100 92 23 46 41 89 41 95 0 7 5 12 10 12 6 0
10 -7 10 -15 0 -8 15 -24 33 -35 59 -38 129 -11 218 83 l58 60 3 -39 c2 -32 7
-40 26 -42 19 -3 27 6 52 60 28 61 29 62 30 28 2 -140 72 -173 128 -60 l30 60
7 -78 c11 -130 39 -204 67 -177 3 3 -1 27 -7 53 -7 26 -16 78 -19 115 -11 100
-10 437 0 447 15 15 220 80 251 80 36 0 46 9 32 27 -17 20 -55 15 -166 -21z
m-1133 -73 c0 -39 -36 -108 -76 -143 -36 -31 -54 -38 -54 -19 0 20 62 134 88
162 32 34 42 34 42 0z m111 -320 c-9 -16 -10 -15 -11 8 0 14 3 29 8 33 12 12
14 -22 3 -41z m659 4 c0 -7 -9 -30 -20 -52 l-20 -40 6 40 c8 58 14 76 25 70 5
-4 9 -12 9 -18z"/>
<path d="M2644 2745 c-10 -24 12 -42 34 -29 24 16 21 38 -6 42 -13 2 -25 -3
-28 -13z"/>
<path d="M3165 2692 c-20 -13 -53 -67 -78 -127 -23 -52 -26 -56 -27 -30 0 17
5 47 11 68 5 20 7 42 4 48 -12 19 -34 -11 -46 -65 -12 -57 -45 -88 -106 -101
-27 -5 -36 -1 -68 30 l-36 37 22 44 c12 25 19 48 16 51 -14 13 -36 -8 -56 -54
-69 -151 -124 -243 -146 -243 -13 0 -18 15 -30 96 -6 38 3 109 21 172 5 16 2
22 -9 22 -21 0 -32 -22 -46 -98 -35 -183 53 -303 134 -183 l25 36 0 -30 c0
-39 35 -95 58 -95 39 0 82 71 82 135 0 31 3 34 40 40 22 4 51 16 65 27 l25 19
0 -44 c0 -26 6 -49 14 -56 20 -16 36 10 76 120 17 48 37 95 45 105 13 17 14 8
15 -77 0 -80 3 -101 19 -120 16 -20 22 -22 44 -12 26 12 87 108 87 137 0 33
-29 14 -59 -39 -17 -30 -35 -55 -41 -55 -5 0 -11 53 -12 122 -2 100 -6 123
-18 125 -8 2 -20 0 -25 -5z m-329 -227 c20 -30 15 -101 -9 -135 l-16 -23 -12
26 c-13 29 -4 157 12 157 5 0 16 -11 25 -25z"/>
<path d="M464 2184 c3 -11 1 -35 -4 -54 -7 -25 -7 -36 3 -42 7 -5 8 -8 1 -8
-6 0 -16 -10 -21 -22 -8 -18 -5 -33 13 -70 27 -53 34 -59 34 -27 0 11 -4 17
-10 14 -16 -10 -23 43 -10 74 6 16 9 39 5 52 -5 14 -4 19 4 15 7 -5 11 2 11
19 0 22 4 26 24 23 13 -1 29 2 37 9 8 6 25 13 39 16 14 2 -3 5 -37 6 -34 0
-69 4 -78 8 -14 5 -16 2 -11 -13z"/>
<path d="M620 2175 c0 -2 10 -10 23 -16 20 -11 21 -11 8 4 -13 16 -31 23 -31
12z"/>
<path d="M670 2136 c0 -2 7 -6 15 -10 8 -3 15 -1 15 4 0 6 -7 10 -15 10 -8 0
-15 -2 -15 -4z"/>
<path d="M439 1961 c8 -5 11 -16 7 -29 -10 -31 71 -202 95 -202 20 0 25 15 9
25 -5 3 -10 15 -10 26 0 10 -6 19 -13 19 -16 0 -40 41 -36 61 5 21 -38 109
-53 109 -10 0 -10 -2 1 -9z"/>
<path d="M545 1830 c9 -16 18 -30 21 -30 2 0 -2 14 -11 30 -9 17 -18 30 -21
30 -2 0 2 -13 11 -30z"/>
<path d="M776 1803 c-6 -14 -5 -15 5 -6 7 7 10 15 7 18 -3 3 -9 -2 -12 -12z"/>
<path d="M745 1751 c-3 -5 -1 -12 5 -16 5 -3 10 1 10 9 0 18 -6 21 -15 7z"/>
<path d="M2278 1733 c7 -3 16 -2 19 1 4 3 -2 6 -13 5 -11 0 -14 -3 -6 -6z"/>
<path d="M763 1510 c14 -11 29 -20 34 -20 10 1 -39 39 -51 40 -5 0 3 -9 17
-20z"/>
</g>
</svg>
