<?xml version="1.0" encoding="UTF-8" standalone="no" ?>
<!DOCTYPE svg PUBLIC "-//W3C//DTD SVG 1.1//EN" "http://www.w3.org/Graphics/SVG/1.1/DTD/svg11.dtd">
<svg xmlns="http://www.w3.org/2000/svg" xmlns:xlink="http://www.w3.org/1999/xlink" version="1.1" width="68" height="38" viewBox="0 0 68 38" xml:space="preserve">
<desc>Created with Fabric.js 3.6.6</desc>
<defs>
</defs>
<g transform="matrix(0.7 0 0 0.7 74.66 61.21)"  >
<g style=""   >
		<g transform="matrix(1 0 0 1 -490 -490)"  >
<rect style="stroke: none; stroke-width: 1; stroke-dasharray: none; stroke-linecap: butt; stroke-dashoffset: 0; stroke-linejoin: miter; stroke-miterlimit: 4; fill: rgb(255,255,255); fill-opacity: 0; fill-rule: nonzero; opacity: 1;"  x="-50" y="-50" rx="0" ry="0" width="100" height="100" />
</g>
		<g transform="matrix(1 0 0 1 0 0)" id="b85d5450-f1cf-42ef-924c-1eb135178db9"  >
<rect style="stroke: none; stroke-width: 1; stroke-dasharray: none; stroke-linecap: butt; stroke-dashoffset: 0; stroke-linejoin: miter; stroke-miterlimit: 4; fill: rgb(255,255,255); fill-rule: nonzero; opacity: 1; visibility: hidden;" vector-effect="non-scaling-stroke"  x="-540" y="-540" rx="0" ry="0" width="1080" height="1080" />
</g>
		<g transform="matrix(0.13 0 0 -0.13 205.92 -130.29)"  >
<path style="stroke: none; stroke-width: 1; stroke-dasharray: none; stroke-linecap: butt; stroke-dashoffset: 0; stroke-linejoin: miter; stroke-miterlimit: 4; fill: rgb(0,0,0); fill-rule: nonzero; opacity: 1;" vector-effect="non-scaling-stroke"  transform=" translate(-3573, -3452.31)" d="M 3560 3456 C 3560 3454 3567 3449 3576 3446 C 3584 3443 3588 3444 3585 3450 C 3579 3460 3560 3464 3560 3456 z" stroke-linecap="round" />
</g>
		<g transform="matrix(0.13 0 0 -0.13 211.52 -127.32)"  >
<path style="stroke: none; stroke-width: 1; stroke-dasharray: none; stroke-linecap: butt; stroke-dashoffset: 0; stroke-linejoin: miter; stroke-miterlimit: 4; fill: rgb(0,0,0); fill-rule: nonzero; opacity: 1;" vector-effect="non-scaling-stroke"  transform=" translate(-3615, -3430)" d="M 3605 3430 C 3608 3425 3616 3420 3621 3420 C 3627 3420 3628 3425 3625 3430 C 3622 3436 3614 3440 3609 3440 C 3603 3440 3602 3436 3605 3430 z" stroke-linecap="round" />
</g>
		<g transform="matrix(0.13 0 0 -0.13 75.85 -89.79)"  >
<path style="stroke: none; stroke-width: 1; stroke-dasharray: none; stroke-linecap: butt; stroke-dashoffset: 0; stroke-linejoin: miter; stroke-miterlimit: 4; fill: rgb(0,0,0); fill-rule: nonzero; opacity: 1;" vector-effect="non-scaling-stroke"  transform=" translate(-2597.49, -3148.58)" d="M 2530 3168 C 2572 3143 2690 3100 2690 3110 C 2690 3125 2661 3141 2590 3165 C 2500 3196 2484 3196 2530 3168 z" stroke-linecap="round" />
</g>
		<g transform="matrix(0.13 0 0 -0.13 117.23 -73.62)"  >
<path style="stroke: none; stroke-width: 1; stroke-dasharray: none; stroke-linecap: butt; stroke-dashoffset: 0; stroke-linejoin: miter; stroke-miterlimit: 4; fill: rgb(0,0,0); fill-rule: nonzero; opacity: 1;" vector-effect="non-scaling-stroke"  transform=" translate(-2907.86, -3027.29)" d="M 2840 3048 C 2854 3042 2876 3033 2890 3027 C 2946 3003 2985 2991 2990 2996 C 2999 3006 2958 3029 2904 3045 C 2843 3063 2800 3065 2840 3048 z" stroke-linecap="round" />
</g>
		<g transform="matrix(0.13 0 0 -0.13 133.35 -66.57)"  >
<path style="stroke: none; stroke-width: 1; stroke-dasharray: none; stroke-linecap: butt; stroke-dashoffset: 0; stroke-linejoin: miter; stroke-miterlimit: 4; fill: rgb(0,0,0); fill-rule: nonzero; opacity: 1;" vector-effect="non-scaling-stroke"  transform=" translate(-3028.75, -2974.44)" d="M 3014 2975 C 3025 2967 3041 2960 3049 2960 C 3059 2961 3056 2966 3040 2975 C 3007 2994 2990 2993 3014 2975 z" stroke-linecap="round" />
</g>
		<g transform="matrix(0.13 0 0 -0.13 1.98 6.77)"  >
<path style="stroke: none; stroke-width: 1; stroke-dasharray: none; stroke-linecap: butt; stroke-dashoffset: 0; stroke-linejoin: miter; stroke-miterlimit: 4; fill: rgb(0,0,0); fill-rule: nonzero; opacity: 1;" vector-effect="non-scaling-stroke"  transform=" translate(-2043.49, -2424.32)" d="M 2643 2856 L 2540 2822 L 2540 2852 C 2540 2894 2508 2886 2494 2840 C 2485 2810 2472 2800 2400 2764 C 2355 2741 2314 2716 2309 2709 C 2290 2678 2321 2680 2389 2714 C 2428 2734 2463 2750 2468 2750 C 2473 2750 2476 2693 2475 2623 C 2472 2496 2472 2494 2431 2406 C 2378 2291 2367 2299 2360 2456 C 2357 2519 2352 2570 2348 2570 C 2343 2570 2336 2570 2332 2570 C 2328 2570 2319 2556 2313 2539 C 2303 2512 2298 2509 2286 2519 C 2266 2536 2232 2517 2224 2485 C 2221 2471 2213 2460 2206 2460 C 2200 2460 2182 2441 2165 2419 C 2118 2354 2042 2291 2004 2284 C 1952 2274 1930 2299 1930 2366 C 1930 2414 1933 2420 1958 2432 C 1988 2446 2032 2524 2028 2555 C 2023 2589 1985 2585 1957 2548 C 1928 2508 1875 2397 1831 2280 C 1794 2182 1765 2138 1751 2158 C 1747 2166 1740 2206 1736 2248 C 1730 2325 1715 2361 1676 2392 C 1659 2406 1655 2420 1655 2471 C 1655 2520 1651 2535 1637 2544 C 1622 2553 1615 2550 1594 2527 C 1565 2493 1563 2450 1590 2425 C 1606 2411 1607 2405 1596 2394 C 1588 2387 1579 2359 1576 2333 C 1572 2307 1560 2252 1549 2211 C 1492 1999 1409 1944 1344 2076 C 1310 2146 1302 2270 1324 2400 C 1349 2548 1357 2570 1386 2570 C 1441 2570 1550 2709 1550 2780 C 1550 2813 1524 2850 1500 2850 C 1470 2850 1414 2787 1377 2710 C 1358 2672 1340 2643 1337 2647 C 1333 2650 1330 2673 1330 2697 C 1330 2739 1319 2752 1304 2728 C 1292 2709 1299 2638 1315 2614 C 1328 2594 1328 2586 1315 2550 C 1307 2528 1293 2459 1284 2397 C 1262 2247 1270 2136 1308 2060 C 1335 2005 1386 1960 1420 1960 C 1449 1960 1503 2003 1527 2045 C 1556 2095 1607 2258 1616 2328 C 1620 2356 1626 2380 1630 2380 C 1645 2380 1681 2331 1690 2299 C 1696 2280 1700 2247 1700 2224 C 1700 2172 1717 2122 1739 2111 C 1772 2093 1798 2117 1839 2203 C 1862 2249 1880 2292 1880 2298 C 1880 2305 1885 2310 1890 2310 C 1896 2310 1900 2303 1900 2295 C 1900 2287 1915 2271 1933 2260 C 1992 2222 2062 2249 2151 2343 L 2209 2403 L 2212 2364 C 2214 2332 2219 2324 2238 2322 C 2257 2319 2265 2328 2290 2382 C 2318 2443 2319 2444 2320 2410 C 2322 2270 2392 2237 2448 2350 L 2478 2410 L 2485 2332 C 2496 2202 2524 2128 2552 2155 C 2555 2158 2551 2182 2545 2208 C 2538 2234 2529 2286 2526 2323 C 2515 2423 2516 2760 2526 2770 C 2541 2785 2746 2850 2777 2850 C 2813 2850 2823 2859 2809 2877 C 2792 2897 2754 2892 2643 2856 z M 1510 2783 C 1510 2744 1474 2675 1434 2640 C 1398 2609 1380 2602 1380 2621 C 1380 2641 1442 2755 1468 2783 C 1500 2817 1510 2817 1510 2783 z M 1621 2463 C 1612 2447 1611 2448 1610 2471 C 1610 2485 1613 2500 1618 2504 C 1630 2516 1632 2482 1621 2463 z M 2280 2467 C 2280 2460 2271 2437 2260 2415 L 2240 2375 L 2246 2415 C 2254 2473 2260 2491 2271 2485 C 2276 2481 2280 2473 2280 2467 z" stroke-linecap="round" />
</g>
		<g transform="matrix(0.13 0 0 -0.13 85.24 -34.65)"  >
<path style="stroke: none; stroke-width: 1; stroke-dasharray: none; stroke-linecap: butt; stroke-dashoffset: 0; stroke-linejoin: miter; stroke-miterlimit: 4; fill: rgb(0,0,0); fill-rule: nonzero; opacity: 1;" vector-effect="non-scaling-stroke"  transform=" translate(-2667.9, -2735.04)" d="M 2644 2745 C 2634 2721 2656 2703 2678 2716 C 2702 2732 2699 2754 2672 2758 C 2659 2760 2647 2755 2644 2745 z" stroke-linecap="round" />
</g>
		<g transform="matrix(0.13 0 0 -0.13 123.06 -1.17)"  >
<path style="stroke: none; stroke-width: 1; stroke-dasharray: none; stroke-linecap: butt; stroke-dashoffset: 0; stroke-linejoin: miter; stroke-miterlimit: 4; fill: rgb(0,0,0); fill-rule: nonzero; opacity: 1;" vector-effect="non-scaling-stroke"  transform=" translate(-2951.55, -2483.88)" d="M 3165 2692 C 3145 2679 3112 2625 3087 2565 C 3064 2513 3061 2509 3060 2535 C 3060 2552 3065 2582 3071 2603 C 3076 2623 3078 2645 3075 2651 C 3063 2670 3041 2640 3029 2586 C 3017 2529 2984 2498 2923 2485 C 2896 2480 2887 2484 2855 2515 L 2819 2552 L 2841 2596 C 2853 2621 2860 2644 2857 2647 C 2843 2660 2821 2639 2801 2593 C 2732 2442 2677 2350 2655 2350 C 2642 2350 2637 2365 2625 2446 C 2619 2484 2628 2555 2646 2618 C 2651 2634 2648 2640 2637 2640 C 2616 2640 2605 2618 2591 2542 C 2556 2359 2644 2239 2725 2359 L 2750 2395 L 2750 2365 C 2750 2326 2785 2270 2808 2270 C 2847 2270 2890 2341 2890 2405 C 2890 2436 2893 2439 2930 2445 C 2952 2449 2981 2461 2995 2472 L 3020 2491 L 3020 2447 C 3020 2421 3026 2398 3034 2391 C 3054 2375 3070 2401 3110 2511 C 3127 2559 3147 2606 3155 2616 C 3168 2633 3169 2624 3170 2539 C 3170 2459 3173 2438 3189 2419 C 3205 2399 3211 2397 3233 2407 C 3259 2419 3320 2515 3320 2544 C 3320 2577 3291 2558 3261 2505 C 3244 2475 3226 2450 3220 2450 C 3215 2450 3209 2503 3208 2572 C 3206 2672 3202 2695 3190 2697 C 3182 2699 3170 2697 3165 2692 z M 2836 2465 C 2856 2435 2851 2364 2827 2330 L 2811 2307 L 2799 2333 C 2786 2362 2795 2490 2811 2490 C 2816 2490 2827 2479 2836 2465 z" stroke-linecap="round" />
</g>
		<g transform="matrix(0.13 0 0 -0.13 -201.57 53.97)"  >
<path style="stroke: none; stroke-width: 1; stroke-dasharray: none; stroke-linecap: butt; stroke-dashoffset: 0; stroke-linejoin: miter; stroke-miterlimit: 4; fill: rgb(0,0,0); fill-rule: nonzero; opacity: 1;" vector-effect="non-scaling-stroke"  transform=" translate(-516.86, -2070.32)" d="M 464 2184 C 467 2173 465 2149 460 2130 C 453 2105 453 2094 463 2088 C 470 2083 471 2080 464 2080 C 458 2080 448 2070 443 2058 C 435 2040 438 2025 456 1988 C 483 1935 490 1929 490 1961 C 490 1972 486 1978 480 1975 C 464 1965 457 2018 470 2049 C 476 2065 479 2088 475 2101 C 470 2115 471 2120 479 2116 C 486 2111 490 2118 490 2135 C 490 2157 494 2161 514 2158 C 527 2157 543 2160 551 2167 C 559 2173 576 2180 590 2183 C 604 2185 587 2188 553 2189 C 519 2189 484 2193 475 2197 C 461 2202 459 2199 464 2184 z" stroke-linecap="round" />
</g>
		<g transform="matrix(0.13 0 0 -0.13 -185.18 41.25)"  >
<path style="stroke: none; stroke-width: 1; stroke-dasharray: none; stroke-linecap: butt; stroke-dashoffset: 0; stroke-linejoin: miter; stroke-miterlimit: 4; fill: rgb(0,0,0); fill-rule: nonzero; opacity: 1;" vector-effect="non-scaling-stroke"  transform=" translate(-639.8, -2165.76)" d="M 620 2175 C 620 2173 630 2165 643 2159 C 663 2148 664 2148 651 2163 C 638 2179 620 2186 620 2175 z" stroke-linecap="round" />
</g>
		<g transform="matrix(0.13 0 0 -0.13 -179.15 45.71)"  >
<path style="stroke: none; stroke-width: 1; stroke-dasharray: none; stroke-linecap: butt; stroke-dashoffset: 0; stroke-linejoin: miter; stroke-miterlimit: 4; fill: rgb(0,0,0); fill-rule: nonzero; opacity: 1;" vector-effect="non-scaling-stroke"  transform=" translate(-685, -2132.3)" d="M 670 2136 C 670 2134 677 2130 685 2126 C 693 2123 700 2125 700 2130 C 700 2136 693 2140 685 2140 C 677 2140 670 2138 670 2136 z" stroke-linecap="round" />
</g>
		<g transform="matrix(0.13 0 0 -0.13 -204.48 83.35)"  >
<path style="stroke: none; stroke-width: 1; stroke-dasharray: none; stroke-linecap: butt; stroke-dashoffset: 0; stroke-linejoin: miter; stroke-miterlimit: 4; fill: rgb(0,0,0); fill-rule: nonzero; opacity: 1;" vector-effect="non-scaling-stroke"  transform=" translate(-495.06, -1850)" d="M 439 1961 C 447 1956 450 1945 446 1932 C 436 1901 517 1730 541 1730 C 561 1730 566 1745 550 1755 C 545 1758 540 1770 540 1781 C 540 1791 534 1800 527 1800 C 511 1800 487 1841 491 1861 C 496 1882 453 1970 438 1970 C 428 1970 428 1968 439 1961 z" stroke-linecap="round" />
</g>
		<g transform="matrix(0.13 0 0 -0.13 -197.15 86.02)"  >
<path style="stroke: none; stroke-width: 1; stroke-dasharray: none; stroke-linecap: butt; stroke-dashoffset: 0; stroke-linejoin: miter; stroke-miterlimit: 4; fill: rgb(0,0,0); fill-rule: nonzero; opacity: 1;" vector-effect="non-scaling-stroke"  transform=" translate(-550, -1830)" d="M 545 1830 C 554 1814 563 1800 566 1800 C 568 1800 564 1814 555 1830 C 546 1847 537 1860 534 1860 C 532 1860 536 1847 545 1830 z" stroke-linecap="round" />
</g>
		<g transform="matrix(0.13 0 0 -0.13 -166.39 89.55)"  >
<path style="stroke: none; stroke-width: 1; stroke-dasharray: none; stroke-linecap: butt; stroke-dashoffset: 0; stroke-linejoin: miter; stroke-miterlimit: 4; fill: rgb(0,0,0); fill-rule: nonzero; opacity: 1;" vector-effect="non-scaling-stroke"  transform=" translate(-780.72, -1803.52)" d="M 776 1803 C 770 1789 771 1788 781 1797 C 788 1804 791 1812 788 1815 C 785 1818 779 1813 776 1803 z" stroke-linecap="round" />
</g>
		<g transform="matrix(0.13 0 0 -0.13 -170.24 97.1)"  >
<path style="stroke: none; stroke-width: 1; stroke-dasharray: none; stroke-linecap: butt; stroke-dashoffset: 0; stroke-linejoin: miter; stroke-miterlimit: 4; fill: rgb(0,0,0); fill-rule: nonzero; opacity: 1;" vector-effect="non-scaling-stroke"  transform=" translate(-751.81, -1746.9)" d="M 745 1751 C 742 1746 744 1739 750 1735 C 755 1732 760 1736 760 1744 C 760 1762 754 1765 745 1751 z" stroke-linecap="round" />
</g>
		<g transform="matrix(0.13 0 0 -0.13 34.3 98.66)"  >
<path style="stroke: none; stroke-width: 1; stroke-dasharray: none; stroke-linecap: butt; stroke-dashoffset: 0; stroke-linejoin: miter; stroke-miterlimit: 4; fill: rgb(0,0,0); fill-rule: nonzero; opacity: 1;" vector-effect="non-scaling-stroke"  transform=" translate(-2285.86, -1735.19)" d="M 2278 1733 C 2285 1730 2294 1731 2297 1734 C 2301 1737 2295 1740 2284 1739 C 2273 1739 2270 1736 2278 1733 z" stroke-linecap="round" />
</g>
		<g transform="matrix(0.13 0 0 -0.13 -167.63 128.68)"  >
<path style="stroke: none; stroke-width: 1; stroke-dasharray: none; stroke-linecap: butt; stroke-dashoffset: 0; stroke-linejoin: miter; stroke-miterlimit: 4; fill: rgb(0,0,0); fill-rule: nonzero; opacity: 1;" vector-effect="non-scaling-stroke"  transform=" translate(-771.42, -1510)" d="M 763 1510 C 777 1499 792 1490 797 1490 C 807 1491 758 1529 746 1530 C 741 1530 749 1521 763 1510 z" stroke-linecap="round" />
</g>
</g>
</g>
</svg>